<?xml version="1.0" encoding="utf-8" ?>
<svg baseProfile="full" height="100.0mm" version="1.1" viewBox="0 0 100.0 100.0" width="100.0mm" xmlns="http://www.w3.org/2000/svg" xmlns:ev="http://www.w3.org/2001/xml-events" xmlns:xlink="http://www.w3.org/1999/xlink"><defs /><circle cx="50.0" cy="50.0" fill="none" r="45.0" stroke="#FF0000" stroke-width="0.01" /><circle cx="50.0" cy="50.0" fill="none" r="42.0" stroke="#000000" stroke-width="0.3" /><circle cx="50.0" cy="50.0" fill="none" r="41.0" stroke="#000000" stroke-width="0.15" /><path d="M 28.0,56.0 A 6.5,7.0 0 0 1 41.0,56.0" fill="none" stroke="#000000" stroke-width="0.6" /><path d="M 42.5,56.0 A 7.5,8.5 0 0 1 57.5,56.0" fill="none" stroke="#000000" stroke-width="0.6" /><path d="M 59.0,56.0 A 6.5,7.0 0 0 1 72.0,56.0" fill="none" stroke="#000000" stroke-width="0.6" /><rect fill="#000000" height="10.0" stroke="none" width="3.0" x="40.5" y="56.0" /><path d="M 42.0,66.0 L 40.0,66.0 L 42.0,68.5 L 44.0,66.0 Z" fill="#000000" stroke="none" /><rect fill="#000000" height="10.0" stroke="none" width="3.0" x="56.5" y="56.0" /><path d="M 58.0,66.0 L 56.0,66.0 L 58.0,68.5 L 60.0,66.0 Z" fill="#000000" stroke="none" /><rect fill="#000000" height="2.5" stroke="none" width="52.0" x="24.0" y="53.5" /><rect fill="#000000" height="14" stroke="none" width="5" x="21.0" y="42.5" /><rect fill="#000000" height="14" stroke="none" width="5" x="74.0" y="42.5" /><rect fill="#000000" height="10" stroke="none" width="4" x="23.0" y="43.5" /><rect fill="#000000" height="12" stroke="none" width="4" x="27.0" y="41.5" /><rect fill="#000000" height="7" stroke="none" width="3.5" x="31.0" y="46.5" /><rect fill="#000000" height="8" stroke="none" width="3" x="34.5" y="45.5" /><rect fill="#000000" height="6.5" stroke="none" width="3" x="37.5" y="47.0" /><rect fill="#000000" height="9" stroke="none" width="3" x="40.5" y="44.5" /><rect fill="#000000" height="7" stroke="none" width="3.5" x="43.5" y="46.5" /><rect fill="#000000" height="7.5" stroke="none" width="3.5" x="53.0" y="46.0" /><rect fill="#000000" height="9" stroke="none" width="3" x="56.5" y="44.5" /><rect fill="#000000" height="7" stroke="none" width="3" x="59.5" y="46.5" /><rect fill="#000000" height="8.5" stroke="none" width="3" x="62.5" y="45.0" /><rect fill="#000000" height="6.5" stroke="none" width="3.5" x="65.5" y="47.0" /><rect fill="#000000" height="11" stroke="none" width="4" x="69.0" y="42.5" /><rect fill="#000000" height="13" stroke="none" width="4" x="73.0" y="40.5" /><rect fill="#000000" height="3" stroke="none" width="20" x="27.0" y="40.5" /><rect fill="#000000" height="3" stroke="none" width="20" x="53.0" y="41.5" /><rect fill="white" height="1.5" stroke="none" width="1.2" x="29.0" y="41.3" /><rect fill="white" height="1.5" stroke="none" width="1.2" x="32.0" y="41.3" /><rect fill="white" height="1.5" stroke="none" width="1.2" x="35.0" y="41.3" /><rect fill="white" height="1.5" stroke="none" width="1.2" x="38.0" y="41.3" /><rect fill="white" height="1.5" stroke="none" width="1.2" x="41.0" y="41.3" /><rect fill="white" height="1.5" stroke="none" width="1.2" x="44.0" y="41.3" /><rect fill="white" height="1.5" stroke="none" width="1.2" x="55.0" y="42.3" /><rect fill="white" height="1.5" stroke="none" width="1.2" x="58.0" y="42.3" /><rect fill="white" height="1.5" stroke="none" width="1.2" x="61.0" y="42.3" /><rect fill="white" height="1.5" stroke="none" width="1.2" x="64.0" y="42.3" /><rect fill="white" height="1.5" stroke="none" width="1.2" x="67.0" y="42.3" /><rect fill="white" height="1.5" stroke="none" width="1.2" x="70.0" y="42.3" /><rect fill="#000000" height="4" stroke="none" width="2.5" x="32.0" y="53.5" /><path d="M 32.0,57.5 L 33.2,53.5" fill="none" stroke="#000000" stroke-width="0.3" /><path d="M 34.5,57.5 L 33.2,53.5" fill="none" stroke="#000000" stroke-width="0.3" /><rect fill="#000000" height="4" stroke="none" width="2.5" x="36.0" y="53.5" /><path d="M 36.0,57.5 L 37.2,53.5" fill="none" stroke="#000000" stroke-width="0.3" /><path d="M 38.5,57.5 L 37.2,53.5" fill="none" stroke="#000000" stroke-width="0.3" /><rect fill="#000000" height="4" stroke="none" width="2.5" x="40.0" y="53.5" /><path d="M 40.0,57.5 L 41.2,53.5" fill="none" stroke="#000000" stroke-width="0.3" /><path d="M 42.5,57.5 L 41.2,53.5" fill="none" stroke="#000000" stroke-width="0.3" /><rect fill="#000000" height="4" stroke="none" width="2.5" x="44.0" y="53.5" /><path d="M 44.0,57.5 L 45.2,53.5" fill="none" stroke="#000000" stroke-width="0.3" /><path d="M 46.5,57.5 L 45.2,53.5" fill="none" stroke="#000000" stroke-width="0.3" /><rect fill="#000000" height="4" stroke="none" width="2.5" x="54.0" y="53.5" /><path d="M 54.0,57.5 L 55.2,53.5" fill="none" stroke="#000000" stroke-width="0.3" /><path d="M 56.5,57.5 L 55.2,53.5" fill="none" stroke="#000000" stroke-width="0.3" /><rect fill="#000000" height="4" stroke="none" width="2.5" x="58.0" y="53.5" /><path d="M 58.0,57.5 L 59.2,53.5" fill="none" stroke="#000000" stroke-width="0.3" /><path d="M 60.5,57.5 L 59.2,53.5" fill="none" stroke="#000000" stroke-width="0.3" /><rect fill="#000000" height="4" stroke="none" width="2.5" x="62.0" y="53.5" /><path d="M 62.0,57.5 L 63.2,53.5" fill="none" stroke="#000000" stroke-width="0.3" /><path d="M 64.5,57.5 L 63.2,53.5" fill="none" stroke="#000000" stroke-width="0.3" /><rect fill="#000000" height="4" stroke="none" width="2.5" x="66.0" y="53.5" /><path d="M 66.0,57.5 L 67.2,53.5" fill="none" stroke="#000000" stroke-width="0.3" /><path d="M 68.5,57.5 L 67.2,53.5" fill="none" stroke="#000000" stroke-width="0.3" /><rect fill="#000000" height="8" stroke="none" width="0.4" x="46.8" y="45.5" /><rect fill="#000000" height="8" stroke="none" width="0.4" x="49.8" y="45.5" /><rect fill="#000000" height="8" stroke="none" width="0.4" x="52.8" y="45.5" /><rect fill="#000000" height="1" stroke="none" width="7" x="46.5" y="44.7" /><path d="M 47.90,45.50 A 0.6,0.8 0 0 1 49.10,45.50" fill="none" stroke="#000000" stroke-width="0.3" /><path d="M 49.40,45.50 A 0.6,0.8 0 0 1 50.60,45.50" fill="none" stroke="#000000" stroke-width="0.3" /><path d="M 50.90,45.50 A 0.6,0.8 0 0 1 52.10,45.50" fill="none" stroke="#000000" stroke-width="0.3" /><path d="M 42.5,46.5 L 44.0,45.0 L 45.5,46.5 Z" fill="#000000" stroke="none" /><path d="M 55.0,44.5 L 56.5,43.0 L 58.0,44.5 Z" fill="#000000" stroke="none" /><path d="M 22.0,58.0 L 23.00,57.97 L 24.00,58.30 L 25.00,58.49 L 26.00,58.44 L 27.00,58.19 L 28.00,57.85 L 29.00,57.58 L 30.00,57.50 L 31.00,57.67 L 32.00,57.98 L 33.00,58.31 L 34.00,58.49 L 35.00,58.44 L 36.00,58.18 L 37.00,57.84 L 38.00,57.57 L 39.00,57.51 L 40.00,57.67 L 41.00,57.99 L 42.00,58.32 L 43.00,58.49 L 44.00,58.44 L 45.00,58.18 L 46.00,57.83 L 47.00,57.57 L 48.00,57.51 L 49.00,57.68 L 50.00,58.00 L 51.00,58.32 L 52.00,58.49 L 53.00,58.43 L 54.00,58.17 L 55.00,57.82 L 56.00,57.56 L 57.00,57.51 L 58.00,57.68 L 59.00,58.01 L 60.00,58.33 L 61.00,58.49 L 62.00,58.43 L 63.00,58.16 L 64.00,57.82 L 65.00,57.56 L 66.00,57.51 L 67.00,57.69 L 68.00,58.02 L 69.00,58.33 L 70.00,58.50 L 71.00,58.42 L 72.00,58.15 L 73.00,57.81 L 74.00,57.56 L 75.00,57.51 L 76.00,57.70 L 77.00,58.03" fill="none" stroke="#000000" stroke-width="0.2" /><path d="M 22.0,60.5 L 23.00,60.47 L 24.00,60.80 L 25.00,60.99 L 26.00,60.94 L 27.00,60.69 L 28.00,60.35 L 29.00,60.08 L 30.00,60.00 L 31.00,60.17 L 32.00,60.48 L 33.00,60.81 L 34.00,60.99 L 35.00,60.94 L 36.00,60.68 L 37.00,60.34 L 38.00,60.07 L 39.00,60.01 L 40.00,60.17 L 41.00,60.49 L 42.00,60.82 L 43.00,60.99 L 44.00,60.94 L 45.00,60.68 L 46.00,60.33 L 47.00,60.07 L 48.00,60.01 L 49.00,60.18 L 50.00,60.50 L 51.00,60.82 L 52.00,60.99 L 53.00,60.93 L 54.00,60.67 L 55.00,60.32 L 56.00,60.06 L 57.00,60.01 L 58.00,60.18 L 59.00,60.51 L 60.00,60.83 L 61.00,60.99 L 62.00,60.93 L 63.00,60.66 L 64.00,60.32 L 65.00,60.06 L 66.00,60.01 L 67.00,60.19 L 68.00,60.52 L 69.00,60.83 L 70.00,61.00 L 71.00,60.92 L 72.00,60.65 L 73.00,60.31 L 74.00,60.06 L 75.00,60.01 L 76.00,60.20 L 77.00,60.53" fill="none" stroke="#000000" stroke-width="0.2" /><path d="M 22.0,63.0 L 23.00,62.97 L 24.00,63.30 L 25.00,63.49 L 26.00,63.44 L 27.00,63.19 L 28.00,62.85 L 29.00,62.58 L 30.00,62.50 L 31.00,62.67 L 32.00,62.98 L 33.00,63.31 L 34.00,63.49 L 35.00,63.44 L 36.00,63.18 L 37.00,62.84 L 38.00,62.57 L 39.00,62.51 L 40.00,62.67 L 41.00,62.99 L 42.00,63.32 L 43.00,63.49 L 44.00,63.44 L 45.00,63.18 L 46.00,62.83 L 47.00,62.57 L 48.00,62.51 L 49.00,62.68 L 50.00,63.00 L 51.00,63.32 L 52.00,63.49 L 53.00,63.43 L 54.00,63.17 L 55.00,62.82 L 56.00,62.56 L 57.00,62.51 L 58.00,62.68 L 59.00,63.01 L 60.00,63.33 L 61.00,63.49 L 62.00,63.43 L 63.00,63.16 L 64.00,62.82 L 65.00,62.56 L 66.00,62.51 L 67.00,62.69 L 68.00,63.02 L 69.00,63.33 L 70.00,63.50 L 71.00,63.42 L 72.00,63.15 L 73.00,62.81 L 74.00,62.56 L 75.00,62.51 L 76.00,62.70 L 77.00,63.03" fill="none" stroke="#000000" stroke-width="0.2" /><path d="M 24.0,56.0 L 18.0,57.0 L 18.0,68.0" fill="none" stroke="#000000" stroke-width="0.5" /><path d="M 76.0,56.0 L 82.0,57.0 L 82.0,68.0" fill="none" stroke="#000000" stroke-width="0.5" /><text dominant-baseline="central" fill="#000000" font-family="serif" font-size="5" font-weight="bold" stroke="none" text-anchor="middle" transform="rotate(323.6,27.77,19.80)" x="27.765952660450967" y="19.802365342585315">G</text><text dominant-baseline="central" fill="#000000" font-family="serif" font-size="5" font-weight="bold" stroke="none" text-anchor="middle" transform="rotate(330.9,31.77,17.23)" x="31.767622396232422" y="17.230648359883062">O</text><text dominant-baseline="central" fill="#000000" font-family="serif" font-size="5" font-weight="bold" stroke="none" text-anchor="middle" transform="rotate(338.2,36.06,15.19)" x="36.062657912737734" y="15.186202511897271">O</text><text dominant-baseline="central" fill="#000000" font-family="serif" font-size="5" font-weight="bold" stroke="none" text-anchor="middle" transform="rotate(345.5,40.58,13.70)" x="40.58195048070952" y="13.701923697636637">D</text><text dominant-baseline="central" fill="#000000" font-family="serif" font-size="5" font-weight="bold" stroke="none" text-anchor="middle" transform="rotate(352.7,45.25,12.80)" x="45.252782990984414" y="12.801694518845174"> </text><text dominant-baseline="central" fill="#000000" font-family="serif" font-size="5" font-weight="bold" stroke="none" text-anchor="middle" transform="rotate(360.0,50.00,12.50)" x="49.99999999999999" y="12.5">S</text><text dominant-baseline="central" fill="#000000" font-family="serif" font-size="5" font-weight="bold" stroke="none" text-anchor="middle" transform="rotate(367.3,54.75,12.80)" x="54.74721700901557" y="12.801694518845174">T</text><text dominant-baseline="central" fill="#000000" font-family="serif" font-size="5" font-weight="bold" stroke="none" text-anchor="middle" transform="rotate(374.5,59.42,13.70)" x="59.41804951929046" y="13.701923697636637">U</text><text dominant-baseline="central" fill="#000000" font-family="serif" font-size="5" font-weight="bold" stroke="none" text-anchor="middle" transform="rotate(381.8,63.94,15.19)" x="63.93734208726229" y="15.186202511897278">D</text><text dominant-baseline="central" fill="#000000" font-family="serif" font-size="5" font-weight="bold" stroke="none" text-anchor="middle" transform="rotate(389.1,68.23,17.23)" x="68.23237760376759" y="17.230648359883077">I</text><text dominant-baseline="central" fill="#000000" font-family="serif" font-size="5" font-weight="bold" stroke="none" text-anchor="middle" transform="rotate(396.4,72.23,19.80)" x="72.23404733954902" y="19.802365342585304">O</text><text dominant-baseline="central" fill="#000000" font-family="serif" font-size="5" font-weight="bold" stroke="none" text-anchor="middle" transform="rotate(35.7,28.11,80.45)" x="28.10961229119539" y="80.44767521434463">F</text><text dominant-baseline="central" fill="#000000" font-family="serif" font-size="5" font-weight="bold" stroke="none" text-anchor="middle" transform="rotate(27.1,32.89,83.37)" x="32.89210034925639" y="83.37019283043007">I</text><text dominant-baseline="central" fill="#000000" font-family="serif" font-size="5" font-weight="bold" stroke="none" text-anchor="middle" transform="rotate(18.6,38.06,85.55)" x="38.05675061556184" y="85.54727548126743">R</text><text dominant-baseline="central" fill="#000000" font-family="serif" font-size="5" font-weight="bold" stroke="none" text-anchor="middle" transform="rotate(10.0,43.49,86.93)" x="43.48819333749012" y="86.93029073795779">E</text><text dominant-baseline="central" fill="#000000" font-family="serif" font-size="5" font-weight="bold" stroke="none" text-anchor="middle" transform="rotate(1.4,49.07,87.49)" x="49.065099059822266" y="87.48834432503061">N</text><text dominant-baseline="central" fill="#000000" font-family="serif" font-size="5" font-weight="bold" stroke="none" text-anchor="middle" transform="rotate(-7.1,54.66,87.21)" x="54.66288892428069" y="87.20897024750644">Z</text><text dominant-baseline="central" fill="#000000" font-family="serif" font-size="5" font-weight="bold" stroke="none" text-anchor="middle" transform="rotate(-15.7,60.16,86.10)" x="60.1565175553627" y="86.09840926062546">E</text><circle cx="12.642698821559541" cy="53.26834035303718" fill="#000000" r="0.8" stroke="none" /><circle cx="87.35730117844045" cy="53.26834035303718" fill="#000000" r="0.8" stroke="none" /></svg>